<?xml version="1.0" encoding="utf-8"?>
<!-- Generator: Adobe Illustrator 21.1.0, SVG Export Plug-In . SVG Version: 6.00 Build 0)  -->
<svg version="1.1" id="svg8" xmlns="http://www.w3.org/2000/svg" xmlns:xlink="http://www.w3.org/1999/xlink" x="0px" y="0px"
	 viewBox="0 0 408.8 81.7" style="enable-background:new 0 0 408.8 81.7;" xml:space="preserve">
<style type="text/css">
	.st0{fill:#FFFFFF;}
	.st1{fill:#FFDA44;}
	.st2{fill:#F6842B;}
</style>
<g>
	<path class="st0" d="M50,61.3H36.9v-5c-1.3,1.9-4.6,6.5-13.9,6.5C9.1,62.8,0,52,0,38.2c0-15.6,11.1-24.4,22.8-24.4
		c8.1,0,12,4,13.5,5.5v-5V0H50V61.3z M13.7,38.2c0,7,5.1,11.8,11.5,11.8c3.3,0,6.4-1.3,8.5-3.5c2.2-2.2,3.4-5.1,3.2-8.5
		c0-3.3-1.3-6.1-3.4-8.1c-2.1-2.1-5-3.2-8.2-3.2C17.5,26.6,13.7,32.8,13.7,38.2L13.7,38.2z"/>
</g>
<g>
	<path class="st0" d="M53.7,38.2c0-11.2,8-24.4,24.8-24.4s24.8,13.2,24.8,24.4c0,11.3-8,24.4-24.8,24.4S53.7,49.5,53.7,38.2
		L53.7,38.2z M67.4,38.3c0,6.6,5.1,11.5,11,11.5s11-4.9,11-11.6s-5.1-11.6-11-11.6S67.4,31.6,67.4,38.3L67.4,38.3z"/>
</g>
<g>
	<path class="st0" d="M154.5,55.7c0,6.9-0.5,11.3-2.7,15.2c-3.6,5.8-11.9,10.9-23.3,10.9c-16,0-22-9.6-22.9-16.2h15.9
		c1,2.2,2.8,3.4,4.4,4c1.7,0.6,3.2,0.6,3.6,0.6c5.2,0,11.2-3.2,11.2-11.2v-2.7c-1.6,2.7-5.5,6.5-12.8,6.5
		c-12.5,0-23.2-9.4-23.2-24.2c0-15.7,11.3-24.8,23.2-24.8c5.1,0,10.2,1.8,12.8,5.8v-4.3h13.7V55.7z M118.4,38.2
		c0,7.3,5.3,11.8,11,11.8c3.4,0,6-1.2,8-3.1c1.9-2,3.1-4.7,3.2-8c0-3.4-1-6.5-2.9-8.6c-1.8-2.2-4.6-3.6-8.3-3.6
		C123.6,26.7,118.4,31.4,118.4,38.2L118.4,38.2z"/>
</g>
<g>
	<path class="st0" d="M160.1,0h13.7v61.3h-13.7V0z"/>
</g>
<g>
	<path class="st1" d="M177.5,38.2c0-11.2,8-24.4,24.8-24.4S227,27,227,38.3c0,11.3-8,24.4-24.8,24.4S177.5,49.5,177.5,38.2
		L177.5,38.2z M191.1,38.4c0,6.6,5.1,11.5,11,11.5c6,0,11-4.9,11-11.6s-5.1-11.6-11-11.6C196.2,26.7,191.1,31.6,191.1,38.4
		L191.1,38.4z M228.5,38.2c0-11.2,8-24.4,24.8-24.4C270,13.8,278,27,278,38.3c0,11.3-8,24.4-24.8,24.4
		C236.5,62.7,228.5,49.5,228.5,38.2L228.5,38.2z M242.2,38.4c0,6.6,5.1,11.5,11,11.5c6,0,11-4.9,11-11.6s-5.1-11.6-11-11.6
		C247.3,26.7,242.2,31.6,242.2,38.4L242.2,38.4z"/>
</g>
<g>
	<path class="st0" d="M328.1,43.8c-2.5,10.4-11.7,19-24.1,19c-13.9,0-24.6-10.9-24.6-24.6c0-13.5,10.5-24.4,24.3-24.4
		c12.2,0,22,8,24.4,19.3h-13.9c-1.5-3.1-4.2-6.5-9.9-6.5c-3.2-0.2-6,1.1-8,3.2c-1.9,2.2-3,5.1-3,8.4c0,6.7,4.4,11.7,10.9,11.7
		c5.7,0,8.4-3.3,9.9-6.1H328.1z"/>
</g>
<g>
	<path class="st0" d="M379.8,61.3h-13.7v-5c-2.5,4.5-8.2,6.5-13.6,6.5c-14.6,0-23.1-11.4-23.1-24.6c0-15.1,10.8-24.5,23.1-24.5
		c7.5,0,11.8,3.6,13.6,6.5v-4.9h13.7V61.3z M343.1,38.5c0,4.2,3.1,11.5,11.4,11.5c4.9,0,7.9-2.3,9.6-5.1c1.2-1.8,1.7-3.8,1.9-5.9
		c0.2-2.1-0.2-4.1-1.2-6c-1.5-3.1-4.6-6.4-10.4-6.4C346.6,26.6,343.1,33.2,343.1,38.5L343.1,38.5z"/>
</g>
<g>
	<path class="st0" d="M388.4,25.8h-6.8V15.3h6.8V0h13.7v15.3h6.6v10.4h-6.6v35.5h-13.7V25.8z"/>
</g>
<g>
	<ellipse class="st1" cx="227.8" cy="68.1" rx="10.8" ry="5.8"/>
</g>
<g>
	<line class="st2" x1="227.8" y1="68.9" x2="227.8" y2="80.5"/>
	<path class="st1" d="M227.8,68.9c1,1,1.6,1.9,2,2.9c0.4,1,0.5,1.9,0.5,2.9c0,1-0.2,1.9-0.5,2.9c-0.4,1-0.9,1.9-2,2.9
		c-1-1-1.6-1.9-2-2.9c-0.4-1-0.5-1.9-0.5-2.9c0-1,0.2-1.9,0.5-2.9C226.2,70.8,226.7,69.8,227.8,68.9z"/>
</g>
<circle class="st1" cx="205.2" cy="34.9" r="4.9"/>
<circle class="st1" cx="256.3" cy="34.9" r="4.9"/>
</svg>
